<svg id="Layer_5" enable-background="new 0 0 64 64" height="512" viewBox="0 0 64 64" width="512" xmlns="http://www.w3.org/2000/svg"><path d="m24 59h2v2h-2z" fill="#fff"/><path d="m20.451 45.793 3.549 2.729v8.478h2v-9.462l-4.33-3.331z" fill="#fff"/><path d="m60 1c-1.654 0-3 1.346-3 3 0 .355.073.691.187 1.007l-6.542 4.361c-4.582-5.13-11.241-8.368-18.645-8.368-7.927 0-14.999 3.713-19.582 9.486l-5.69-5.252c.171-.378.272-.793.272-1.234 0-1.654-1.346-3-3-3s-3 1.346-3 3 1.346 3 3 3c.483 0 .932-.125 1.337-.328l5.89 5.437c-2.668 3.975-4.227 8.754-4.227 13.891v2.183c0 7.708 3.647 15.115 9.758 19.815l3.242 2.494v12.508h2v-13.492l-4.023-3.096c-5.622-4.323-8.977-11.138-8.977-18.229v-2.183c0-4.613 1.37-8.91 3.718-12.515l2.527 2.333c-.157.363-.245.762-.245 1.182 0 1.197.709 2.223 1.724 2.705l-.439 4.391c-1.308.322-2.285 1.497-2.285 2.904 0 1.654 1.346 3 3 3 .614 0 1.185-.187 1.661-.505l3.489 2.617c-.089.282-.15.577-.15.888 0 1.302.839 2.402 2 2.816v4.184h2v-4.184c1.161-.414 2-1.514 2-2.816 0-1.222-.736-2.271-1.786-2.738l.567-7.378c.788-.214 1.441-.737 1.83-1.436l6.442 1.074c.249 1.406 1.472 2.478 2.947 2.478.182 0 .359-.023.532-.054l1.204 2.107c-.452.526-.736 1.201-.736 1.947 0 .078.017.151.023.228l-3.853 1.712c-.546-.576-1.315-.94-2.17-.94-1.654 0-3 1.346-3 3 0 1.302.839 2.402 2 2.816v4.184h2v-4.184c1.161-.414 2-1.514 2-2.816 0-.078-.017-.152-.023-.229l3.852-1.712c.547.577 1.315.941 2.171.941 1.654 0 3-1.346 3-3 0-.759-.293-1.446-.759-1.975l2.264-4.075c.162.027.325.05.495.05 1.654 0 3-1.346 3-3s-1.346-3-3-3c-.205 0-.404.021-.598.06l-1.054-1.757 4.907-3.272c2.973 3.876 4.745 8.718 4.745 13.969v12.279l-2.937.979-.976 10.742h-7.087c-3.859 0-7-3.141-7-7h-2c0 4.625 3.507 8.442 8 8.941v11.059h2v-11h7.913l1.023-11.258 3.064-1.021v-13.721c0-5.66-1.894-10.885-5.077-15.08l6.537-4.358c.452.272.975.438 1.54.438 1.654 0 3-1.346 3-3s-1.346-3-3-3zm-57 3c0-.552.448-1 1-1s1 .448 1 1-.448 1-1 1-1-.448-1-1zm30 30c-.552 0-1-.448-1-1s.448-1 1-1 1 .448 1 1-.448 1-1 1zm-2.184-23h6.882l-9.909 6.606c-.082-.062-.167-.118-.256-.171l.896-4.478c1.111-.161 2.019-.926 2.387-1.957zm13.943 10.974-2.264 4.076c-.162-.027-.326-.05-.495-.05-.182 0-.359.023-.532.054l-1.204-2.107c.452-.526.736-1.201.736-1.947 0-1.042-.536-1.961-1.345-2.498l1.632-6.531c.104-.01.21-.011.31-.031l3.098 5.163c-.427.519-.695 1.174-.695 1.897 0 .759.293 1.445.759 1.974zm-9.37-1.423-6.442-1.074c-.013-.071-.03-.139-.048-.208l10.312-6.874c.045.034.086.073.133.104l-1.632 6.531c-1.002.096-1.855.681-2.323 1.521zm5.611-9.551c-.552 0-1-.448-1-1s.448-1 1-1 1 .448 1 1-.448 1-1 1zm-13 0c-.552 0-1-.448-1-1s.448-1 1-1 1 .448 1 1-.448 1-1 1zm-1.737 1.437c.065.047.135.087.204.128l-.896 4.478c-1.45.211-2.571 1.449-2.571 2.957 0 .33.066.641.165.938l-4.552 3.541c-.107-.069-.221-.128-.337-.183l.439-4.391c1.308-.323 2.285-1.498 2.285-2.905 0-.277-.05-.54-.12-.795zm-2.924 18.068-3.488-2.616c.088-.283.149-.578.149-.889 0-.33-.066-.641-.165-.938l4.552-3.541c.127.082.26.155.399.217l-.567 7.378c-.316.086-.615.212-.88.389zm-4.339-13.505c0 .552-.448 1-1 1s-1-.448-1-1 .448-1 1-1 1 .448 1 1zm-3 10c0-.552.448-1 1-1s1 .448 1 1-.448 1-1 1-1-.448-1-1zm9 7c-.552 0-1-.448-1-1s.448-1 1-1 1 .448 1 1-.448 1-1 1zm1-13c-.552 0-1-.448-1-1s.448-1 1-1 1 .448 1 1-.448 1-1 1zm11 1c0-.552.448-1 1-1s1 .448 1 1-.448 1-1 1-1-.448-1-1zm5 8c-.552 0-1-.448-1-1s.448-1 1-1 1 .448 1 1-.448 1-1 1zm6-10c0 .552-.448 1-1 1s-1-.448-1-1 .448-1 1-1 1 .448 1 1zm-3.682-6.414-1.013-1.689c.427-.518.695-1.174.695-1.897 0-1.654-1.346-3-3-3-1.302 0-2.402.839-2.816 2h-7.369c-.413-1.161-1.513-2-2.815-2-1.654 0-3 1.346-3 3 0 .277.05.54.121.795l-5.383 3.768c-.492-.351-1.089-.563-1.738-.563-.504 0-.972.137-1.389.357l-2.72-2.511c4.213-5.379 10.762-8.846 18.109-8.846 6.71 0 12.757 2.889 16.965 7.488zm15.682-8.586c-.552 0-1-.448-1-1s.448-1 1-1 1 .448 1 1-.448 1-1 1z" fill="#fff"/></svg>